<mxfile host="app.diagrams.net" agent="Mozilla/5.0 (Windows NT 10.0; Win64; x64) AppleWebKit/537.36 (KHTML, like Gecko) Chrome/138.0.0.0 Safari/537.36 OPR/122.0.0.0" version="28.2.5">
  <diagram name="Page-1" id="RosI9yKeK19fPfaOOAUe">
    <mxGraphModel dx="988" dy="555" grid="1" gridSize="10" guides="1" tooltips="1" connect="1" arrows="1" fold="1" page="1" pageScale="1" pageWidth="827" pageHeight="1169" math="0" shadow="0">
      <root>
        <mxCell id="0" />
        <mxCell id="1" parent="0" />
        <mxCell id="zIjKVyf7ZHZjd0YAjETi-18" value="" style="swimlane;startSize=0;fillColor=light-dark(#FFFFFF,#FFFFFF);swimlaneFillColor=light-dark(#FFFFFF,#FFFFFF);" vertex="1" parent="1">
          <mxGeometry x="190" y="20" width="540" height="530" as="geometry" />
        </mxCell>
        <mxCell id="zIjKVyf7ZHZjd0YAjETi-11" value="Inscrire étudiant" style="ellipse;whiteSpace=wrap;html=1;labelBackgroundColor=none;strokeColor=light-dark(#000000,#797979);fillColor=light-dark(#FFFFFF,#818181);fontStyle=1" vertex="1" parent="zIjKVyf7ZHZjd0YAjETi-18">
          <mxGeometry x="80" y="40" width="110" height="50" as="geometry" />
        </mxCell>
        <mxCell id="zIjKVyf7ZHZjd0YAjETi-12" value="Retirer étudiant" style="ellipse;whiteSpace=wrap;html=1;labelBackgroundColor=none;strokeColor=light-dark(#000000,#797979);fillColor=light-dark(#FFFFFF,#818181);fontStyle=1" vertex="1" parent="zIjKVyf7ZHZjd0YAjETi-18">
          <mxGeometry x="80" y="100" width="110" height="50" as="geometry" />
        </mxCell>
        <mxCell id="zIjKVyf7ZHZjd0YAjETi-13" value="Supprimer cours" style="ellipse;whiteSpace=wrap;html=1;labelBackgroundColor=none;strokeColor=light-dark(#000000,#797979);fillColor=light-dark(#FFFFFF,#818181);fontStyle=1" vertex="1" parent="zIjKVyf7ZHZjd0YAjETi-18">
          <mxGeometry x="80" y="160" width="110" height="50" as="geometry" />
        </mxCell>
        <mxCell id="zIjKVyf7ZHZjd0YAjETi-9" value="&lt;span style=&quot;text-wrap-mode: wrap;&quot;&gt;«Gestion_cours_en_ligne»&lt;/span&gt;" style="text;align=center;fontStyle=1;verticalAlign=middle;spacingLeft=3;spacingRight=3;strokeColor=none;rotatable=0;points=[[0,0.5],[1,0.5]];portConstraint=eastwest;html=1;fontColor=light-dark(#000000,#000000);" vertex="1" parent="zIjKVyf7ZHZjd0YAjETi-18">
          <mxGeometry x="160" width="210" height="26" as="geometry" />
        </mxCell>
        <mxCell id="zIjKVyf7ZHZjd0YAjETi-30" value="&lt;font style=&quot;&quot;&gt;&lt;font style=&quot;color: light-dark(rgb(0, 0, 0), rgb(0, 0, 0)); font-size: 10px;&quot;&gt;&lt;span style=&quot;font-size: 12px; font-weight: 700; text-wrap-mode: wrap;&quot;&gt;«&lt;/span&gt;include&lt;/font&gt;&lt;span style=&quot;font-size: 12px; font-weight: 700; text-wrap-mode: wrap;&quot;&gt;&lt;font style=&quot;color: light-dark(rgb(0, 0, 0), rgb(0, 0, 0));&quot;&gt;»&lt;/font&gt;&lt;/span&gt;&lt;/font&gt;" style="endArrow=open;endSize=12;dashed=1;html=1;rounded=0;fillColor=#1ba1e2;strokeColor=#006EAF;entryX=1;entryY=0.5;entryDx=0;entryDy=0;exitX=1;exitY=0.5;exitDx=0;exitDy=0;curved=1;strokeWidth=1;labelBackgroundColor=light-dark(#FFFFFF,#FFFFFF);" edge="1" parent="zIjKVyf7ZHZjd0YAjETi-18" source="zIjKVyf7ZHZjd0YAjETi-13" target="zIjKVyf7ZHZjd0YAjETi-12">
          <mxGeometry x="-0.0054" width="160" relative="1" as="geometry">
            <mxPoint x="190" y="184.5" as="sourcePoint" />
            <mxPoint x="350" y="184.5" as="targetPoint" />
            <Array as="points">
              <mxPoint x="210" y="160" />
            </Array>
            <mxPoint as="offset" />
          </mxGeometry>
        </mxCell>
        <mxCell id="zIjKVyf7ZHZjd0YAjETi-32" value="Déposer un document" style="ellipse;whiteSpace=wrap;html=1;labelBackgroundColor=none;strokeColor=light-dark(#000000,#797979);fillColor=light-dark(#FFFFFF,#818181);fontStyle=1" vertex="1" parent="zIjKVyf7ZHZjd0YAjETi-18">
          <mxGeometry x="80" y="230" width="110" height="50" as="geometry" />
        </mxCell>
        <mxCell id="zIjKVyf7ZHZjd0YAjETi-33" value="Attribuer notes" style="ellipse;whiteSpace=wrap;html=1;labelBackgroundColor=none;strokeColor=light-dark(#000000,#797979);fillColor=light-dark(#FFFFFF,#818181);fontStyle=1" vertex="1" parent="zIjKVyf7ZHZjd0YAjETi-18">
          <mxGeometry x="80" y="300" width="110" height="50" as="geometry" />
        </mxCell>
        <mxCell id="zIjKVyf7ZHZjd0YAjETi-34" value="Passer un test" style="ellipse;whiteSpace=wrap;html=1;labelBackgroundColor=none;strokeColor=light-dark(#000000,#797979);fillColor=light-dark(#FFFFFF,#818181);fontStyle=1" vertex="1" parent="zIjKVyf7ZHZjd0YAjETi-18">
          <mxGeometry x="80" y="440" width="110" height="50" as="geometry" />
        </mxCell>
        <mxCell id="zIjKVyf7ZHZjd0YAjETi-35" value="Déposer travail" style="ellipse;whiteSpace=wrap;html=1;labelBackgroundColor=none;strokeColor=light-dark(#000000,#797979);fillColor=light-dark(#FFFFFF,#818181);fontStyle=1" vertex="1" parent="zIjKVyf7ZHZjd0YAjETi-18">
          <mxGeometry x="80" y="370" width="110" height="50" as="geometry" />
        </mxCell>
        <mxCell id="zIjKVyf7ZHZjd0YAjETi-37" value="S&#39;identifier" style="ellipse;whiteSpace=wrap;html=1;labelBackgroundColor=none;strokeColor=light-dark(#000000,#797979);fillColor=light-dark(#FFFFFF,#818181);fontStyle=1" vertex="1" parent="zIjKVyf7ZHZjd0YAjETi-18">
          <mxGeometry x="360" y="310" width="110" height="50" as="geometry" />
        </mxCell>
        <mxCell id="zIjKVyf7ZHZjd0YAjETi-38" value="Quitter test" style="ellipse;whiteSpace=wrap;html=1;labelBackgroundColor=none;strokeColor=light-dark(#000000,#797979);fillColor=light-dark(#FFFFFF,#818181);fontStyle=1" vertex="1" parent="zIjKVyf7ZHZjd0YAjETi-18">
          <mxGeometry x="330" y="450" width="110" height="50" as="geometry" />
        </mxCell>
        <mxCell id="zIjKVyf7ZHZjd0YAjETi-45" value="&lt;font style=&quot;&quot;&gt;&lt;font style=&quot;color: light-dark(rgb(0, 0, 0), rgb(0, 0, 0)); font-size: 10px;&quot;&gt;&lt;span style=&quot;font-size: 12px; font-weight: 700; text-wrap-mode: wrap;&quot;&gt;«&lt;/span&gt;include&lt;/font&gt;&lt;span style=&quot;font-size: 12px; font-weight: 700; text-wrap-mode: wrap;&quot;&gt;&lt;font style=&quot;color: light-dark(rgb(0, 0, 0), rgb(0, 0, 0));&quot;&gt;»&lt;/font&gt;&lt;/span&gt;&lt;/font&gt;" style="endArrow=open;endSize=12;dashed=1;html=1;rounded=0;fillColor=#1ba1e2;strokeColor=#006EAF;exitX=1;exitY=0.5;exitDx=0;exitDy=0;curved=1;strokeWidth=1;entryX=0;entryY=0;entryDx=0;entryDy=0;labelBackgroundColor=light-dark(#FFFFFF,#FFFFFF);" edge="1" parent="zIjKVyf7ZHZjd0YAjETi-18" source="zIjKVyf7ZHZjd0YAjETi-32" target="zIjKVyf7ZHZjd0YAjETi-37">
          <mxGeometry x="-0.0054" width="160" relative="1" as="geometry">
            <mxPoint x="190" y="220" as="sourcePoint" />
            <mxPoint x="360" y="335" as="targetPoint" />
            <Array as="points" />
            <mxPoint as="offset" />
          </mxGeometry>
        </mxCell>
        <mxCell id="zIjKVyf7ZHZjd0YAjETi-46" value="&lt;font style=&quot;&quot;&gt;&lt;font style=&quot;color: light-dark(rgb(0, 0, 0), rgb(0, 0, 0)); font-size: 10px;&quot;&gt;&lt;span style=&quot;font-size: 12px; font-weight: 700; text-wrap-mode: wrap;&quot;&gt;«&lt;/span&gt;include&lt;/font&gt;&lt;span style=&quot;font-size: 12px; font-weight: 700; text-wrap-mode: wrap;&quot;&gt;&lt;font style=&quot;color: light-dark(rgb(0, 0, 0), rgb(0, 0, 0));&quot;&gt;»&lt;/font&gt;&lt;/span&gt;&lt;/font&gt;" style="endArrow=open;endSize=12;dashed=1;html=1;rounded=0;fillColor=#1ba1e2;strokeColor=#006EAF;exitX=1;exitY=0.5;exitDx=0;exitDy=0;curved=1;strokeWidth=1;entryX=0;entryY=0.5;entryDx=0;entryDy=0;labelBackgroundColor=light-dark(#FFFFFF,#FFFFFF);" edge="1" parent="zIjKVyf7ZHZjd0YAjETi-18" source="zIjKVyf7ZHZjd0YAjETi-33" target="zIjKVyf7ZHZjd0YAjETi-37">
          <mxGeometry x="-0.0054" width="160" relative="1" as="geometry">
            <mxPoint x="330" y="310" as="sourcePoint" />
            <mxPoint x="360" y="335" as="targetPoint" />
            <Array as="points" />
            <mxPoint as="offset" />
          </mxGeometry>
        </mxCell>
        <mxCell id="zIjKVyf7ZHZjd0YAjETi-47" value="&lt;font style=&quot;&quot;&gt;&lt;font style=&quot;color: light-dark(rgb(0, 0, 0), rgb(0, 0, 0)); font-size: 10px;&quot;&gt;&lt;span style=&quot;font-size: 12px; font-weight: 700; text-wrap-mode: wrap;&quot;&gt;«&lt;/span&gt;include&lt;/font&gt;&lt;span style=&quot;font-size: 12px; font-weight: 700; text-wrap-mode: wrap;&quot;&gt;&lt;font style=&quot;color: light-dark(rgb(0, 0, 0), rgb(0, 0, 0));&quot;&gt;»&lt;/font&gt;&lt;/span&gt;&lt;/font&gt;" style="endArrow=open;endSize=12;dashed=1;html=1;rounded=0;fillColor=#1ba1e2;strokeColor=#006EAF;entryX=0.5;entryY=1;entryDx=0;entryDy=0;exitX=1;exitY=0;exitDx=0;exitDy=0;curved=1;strokeWidth=1;labelBackgroundColor=light-dark(#FFFFFF,#FFFFFF);" edge="1" parent="zIjKVyf7ZHZjd0YAjETi-18" source="zIjKVyf7ZHZjd0YAjETi-34" target="zIjKVyf7ZHZjd0YAjETi-37">
          <mxGeometry x="-0.0054" width="160" relative="1" as="geometry">
            <mxPoint x="260" y="340" as="sourcePoint" />
            <mxPoint x="430" y="350" as="targetPoint" />
            <Array as="points" />
            <mxPoint as="offset" />
          </mxGeometry>
        </mxCell>
        <mxCell id="zIjKVyf7ZHZjd0YAjETi-48" value="&lt;font style=&quot;&quot;&gt;&lt;font style=&quot;color: light-dark(rgb(0, 0, 0), rgb(0, 0, 0)); font-size: 10px;&quot;&gt;&lt;span style=&quot;font-size: 12px; font-weight: 700; text-wrap-mode: wrap;&quot;&gt;«&lt;/span&gt;include&lt;/font&gt;&lt;span style=&quot;font-size: 12px; font-weight: 700; text-wrap-mode: wrap;&quot;&gt;&lt;font style=&quot;color: light-dark(rgb(0, 0, 0), rgb(0, 0, 0));&quot;&gt;»&lt;/font&gt;&lt;/span&gt;&lt;/font&gt;" style="endArrow=open;endSize=12;dashed=1;html=1;rounded=0;fillColor=#1ba1e2;strokeColor=#006EAF;entryX=0;entryY=1;entryDx=0;entryDy=0;exitX=1;exitY=0.5;exitDx=0;exitDy=0;curved=1;strokeWidth=1;labelBackgroundColor=light-dark(#FFFFFF,#FFFFFF);" edge="1" parent="zIjKVyf7ZHZjd0YAjETi-18" source="zIjKVyf7ZHZjd0YAjETi-35" target="zIjKVyf7ZHZjd0YAjETi-37">
          <mxGeometry x="-0.0054" width="160" relative="1" as="geometry">
            <mxPoint x="280" y="442" as="sourcePoint" />
            <mxPoint x="466" y="400" as="targetPoint" />
            <Array as="points" />
            <mxPoint as="offset" />
          </mxGeometry>
        </mxCell>
        <mxCell id="zIjKVyf7ZHZjd0YAjETi-49" value="&lt;font style=&quot;color: light-dark(rgb(0, 0, 0), rgb(0, 0, 0));&quot;&gt;&lt;span style=&quot;font-size: 12px; font-weight: 700; text-wrap-mode: wrap;&quot;&gt;«&lt;/span&gt;&lt;span style=&quot;font-size: 10px;&quot;&gt;extends&lt;/span&gt;&lt;/font&gt;&lt;span style=&quot;color: rgb(255, 255, 255); text-wrap-mode: wrap; font-size: 12px; font-weight: 700;&quot;&gt;&lt;font style=&quot;color: light-dark(rgb(0, 0, 0), rgb(0, 0, 0));&quot;&gt;»&lt;/font&gt;&lt;/span&gt;" style="endArrow=block;endSize=16;endFill=0;html=1;rounded=0;exitX=0;exitY=0.5;exitDx=0;exitDy=0;fillColor=#1ba1e2;strokeColor=#006EAF;curved=1;fontColor=light-dark(#000000,#000000);labelBackgroundColor=light-dark(#FFFFFF,#FFFFFF);dashed=1;entryX=1;entryY=0.5;entryDx=0;entryDy=0;" edge="1" parent="zIjKVyf7ZHZjd0YAjETi-18" source="zIjKVyf7ZHZjd0YAjETi-38" target="zIjKVyf7ZHZjd0YAjETi-34">
          <mxGeometry width="160" relative="1" as="geometry">
            <mxPoint x="210" y="510" as="sourcePoint" />
            <mxPoint x="200" y="470" as="targetPoint" />
            <mxPoint as="offset" />
          </mxGeometry>
        </mxCell>
        <mxCell id="zIjKVyf7ZHZjd0YAjETi-24" style="rounded=0;orthogonalLoop=1;jettySize=auto;html=1;endArrow=none;endFill=0;strokeColor=#006EAF;fillColor=#1ba1e2;startSize=7;strokeWidth=2;curved=1;exitX=0.5;exitY=0.5;exitDx=0;exitDy=0;exitPerimeter=0;" edge="1" parent="1" source="zIjKVyf7ZHZjd0YAjETi-1" target="zIjKVyf7ZHZjd0YAjETi-11">
          <mxGeometry relative="1" as="geometry" />
        </mxCell>
        <mxCell id="zIjKVyf7ZHZjd0YAjETi-1" value="Admin" style="shape=umlActor;verticalLabelPosition=bottom;verticalAlign=top;html=1;outlineConnect=0;" vertex="1" parent="1">
          <mxGeometry x="80" y="100" width="30" height="60" as="geometry" />
        </mxCell>
        <mxCell id="zIjKVyf7ZHZjd0YAjETi-2" value="Etudiant" style="shape=umlActor;verticalLabelPosition=bottom;verticalAlign=top;html=1;outlineConnect=0;" vertex="1" parent="1">
          <mxGeometry x="80" y="380" width="30" height="60" as="geometry" />
        </mxCell>
        <mxCell id="zIjKVyf7ZHZjd0YAjETi-3" value="Enseignant" style="shape=umlActor;verticalLabelPosition=bottom;verticalAlign=top;html=1;outlineConnect=0;" vertex="1" parent="1">
          <mxGeometry x="80" y="240" width="30" height="60" as="geometry" />
        </mxCell>
        <mxCell id="zIjKVyf7ZHZjd0YAjETi-26" style="rounded=0;orthogonalLoop=1;jettySize=auto;html=1;endArrow=none;endFill=0;strokeColor=#006EAF;fillColor=#1ba1e2;startSize=7;strokeWidth=2;curved=1;entryX=0;entryY=0.5;entryDx=0;entryDy=0;exitX=0.5;exitY=0.5;exitDx=0;exitDy=0;exitPerimeter=0;" edge="1" parent="1" source="zIjKVyf7ZHZjd0YAjETi-1" target="zIjKVyf7ZHZjd0YAjETi-12">
          <mxGeometry relative="1" as="geometry">
            <mxPoint x="95" y="130" as="sourcePoint" />
            <mxPoint x="261" y="160" as="targetPoint" />
          </mxGeometry>
        </mxCell>
        <mxCell id="zIjKVyf7ZHZjd0YAjETi-27" style="rounded=0;orthogonalLoop=1;jettySize=auto;html=1;endArrow=none;endFill=0;strokeColor=#006EAF;fillColor=#1ba1e2;startSize=7;strokeWidth=2;curved=1;entryX=0;entryY=0.5;entryDx=0;entryDy=0;exitX=0.5;exitY=0.5;exitDx=0;exitDy=0;exitPerimeter=0;" edge="1" parent="1" source="zIjKVyf7ZHZjd0YAjETi-1" target="zIjKVyf7ZHZjd0YAjETi-13">
          <mxGeometry relative="1" as="geometry">
            <mxPoint x="90" y="110" as="sourcePoint" />
            <mxPoint x="391" y="130" as="targetPoint" />
          </mxGeometry>
        </mxCell>
        <mxCell id="zIjKVyf7ZHZjd0YAjETi-42" style="rounded=0;orthogonalLoop=1;jettySize=auto;html=1;endArrow=none;endFill=0;strokeColor=#006EAF;fillColor=#1ba1e2;startSize=7;strokeWidth=2;curved=1;entryX=0;entryY=0.5;entryDx=0;entryDy=0;exitX=0.5;exitY=0.5;exitDx=0;exitDy=0;exitPerimeter=0;" edge="1" parent="1" source="zIjKVyf7ZHZjd0YAjETi-3" target="zIjKVyf7ZHZjd0YAjETi-32">
          <mxGeometry relative="1" as="geometry">
            <mxPoint x="180" y="180" as="sourcePoint" />
            <mxPoint x="350" y="221" as="targetPoint" />
          </mxGeometry>
        </mxCell>
        <mxCell id="zIjKVyf7ZHZjd0YAjETi-43" style="rounded=0;orthogonalLoop=1;jettySize=auto;html=1;endArrow=none;endFill=0;strokeColor=#006EAF;fillColor=#1ba1e2;startSize=7;strokeWidth=2;curved=1;exitX=0.5;exitY=0.5;exitDx=0;exitDy=0;exitPerimeter=0;entryX=0;entryY=0.5;entryDx=0;entryDy=0;" edge="1" parent="1" source="zIjKVyf7ZHZjd0YAjETi-3" target="zIjKVyf7ZHZjd0YAjETi-33">
          <mxGeometry relative="1" as="geometry">
            <mxPoint x="160" y="285" as="sourcePoint" />
            <mxPoint x="345" y="260" as="targetPoint" />
          </mxGeometry>
        </mxCell>
        <mxCell id="zIjKVyf7ZHZjd0YAjETi-50" style="rounded=0;orthogonalLoop=1;jettySize=auto;html=1;endArrow=none;endFill=0;strokeColor=#006EAF;fillColor=#1ba1e2;startSize=7;strokeWidth=2;curved=1;entryX=0;entryY=0.5;entryDx=0;entryDy=0;exitX=0.5;exitY=0.5;exitDx=0;exitDy=0;exitPerimeter=0;" edge="1" parent="1" source="zIjKVyf7ZHZjd0YAjETi-2" target="zIjKVyf7ZHZjd0YAjETi-35">
          <mxGeometry relative="1" as="geometry">
            <mxPoint x="140" y="410" as="sourcePoint" />
            <mxPoint x="315" y="415" as="targetPoint" />
          </mxGeometry>
        </mxCell>
        <mxCell id="zIjKVyf7ZHZjd0YAjETi-51" style="rounded=0;orthogonalLoop=1;jettySize=auto;html=1;endArrow=none;endFill=0;strokeColor=#006EAF;fillColor=#1ba1e2;startSize=7;strokeWidth=2;curved=1;entryX=0;entryY=0.5;entryDx=0;entryDy=0;exitX=0.5;exitY=0.5;exitDx=0;exitDy=0;exitPerimeter=0;" edge="1" parent="1" source="zIjKVyf7ZHZjd0YAjETi-2" target="zIjKVyf7ZHZjd0YAjETi-34">
          <mxGeometry relative="1" as="geometry">
            <mxPoint x="100" y="410" as="sourcePoint" />
            <mxPoint x="315" y="415" as="targetPoint" />
          </mxGeometry>
        </mxCell>
      </root>
    </mxGraphModel>
  </diagram>
</mxfile>
